<svg width="155" height="49" viewBox="0 0 155 49" fill="none" xmlns="http://www.w3.org/2000/svg">
<g clip-path="url(#clip0_152_1081)">
<path d="M56.9549 3.53857V6.7208H56.0945V4.31817H49.5465L49.6131 48.2219H50.9363V49.0029H42.5358V48.2248H44.1902V4.31817H37.972V6.7208H37.113V3.53857H56.9549Z" fill="#1F57C3"/>
<path d="M66.6105 27.6332V48.2219H74.9443V46.1429H75.8033V49.0029H59.5333V48.2248H61.1876V4.31817H59.5333V3.53857H75.8033V6.3956H74.9443V4.31668H66.5379L66.6044 25.5513M66.0268 24.1926H72.2269V22.8294H73.0858V26.2715H72.2269V25.036H65.9194" fill="#1F57C3"/>
<path d="M87.7756 48.2859C88.6653 48.3071 89.5512 48.164 90.3872 47.8641C91.0978 47.5983 91.6779 47.0755 92.0083 46.403C92.3611 45.71 92.4821 44.7789 92.3712 43.6098C92.2603 42.4406 91.8525 40.9686 91.1478 39.1936L80.5622 14.6446C80.1189 13.446 79.8768 12.1847 79.8454 10.91C79.7854 9.66793 80.0351 8.43029 80.5728 7.30453C81.0961 6.2235 81.9757 5.32313 83.2117 4.60343C84.4477 3.88373 86.1232 3.52685 88.2383 3.53279C90.1326 3.53279 91.6539 3.74909 92.8022 4.18171C93.9505 4.61432 94.7988 5.13405 95.3473 5.74089C95.8987 6.34675 96.1966 6.98527 96.241 7.65646C96.3023 8.25535 96.1745 8.85827 95.875 9.38344C95.5942 9.85789 95.1486 10.217 94.6199 10.3947C94.0674 10.5927 93.4832 10.4937 92.8672 10.0977C92.1171 9.66608 91.6983 9.2206 91.6106 8.76126C91.5218 8.32949 91.5447 7.88278 91.6771 7.46193C91.8103 7.04942 91.9761 6.64776 92.1731 6.26062C92.3712 5.87008 92.4272 5.51815 92.3379 5.22116C92.2487 4.92417 91.9085 4.68065 91.3142 4.50691C90.7199 4.33317 89.6931 4.23219 88.2383 4.18765C87.3485 4.16517 86.4622 4.30618 85.6252 4.60343C84.9153 4.86981 84.3359 5.39252 84.0056 6.06461C83.6517 6.75758 83.5302 7.68864 83.6411 8.85778C83.752 10.0269 84.1382 11.499 84.7995 13.274L95.3851 37.8245H95.4516C95.8981 39.0245 96.1433 40.2878 96.1775 41.565C96.2377 42.8066 95.988 44.0438 95.4501 45.169C94.9208 46.252 94.0392 47.1504 92.8052 47.8641C91.5712 48.5779 89.8957 48.9353 87.7786 48.9363C85.8823 48.9363 84.361 48.7195 83.2147 48.2859C82.0684 47.8523 81.2196 47.333 80.6681 46.7282C80.1156 46.1223 79.8177 45.4833 79.7744 44.8111C79.7152 44.2144 79.8423 43.6141 80.1388 43.0901C80.409 42.6272 80.8452 42.2799 81.3622 42.1159C81.8915 41.9437 82.4868 42.0303 83.1482 42.3758C83.9043 42.8094 84.3156 43.2534 84.4048 43.7122C84.4946 44.1563 84.4718 44.6153 84.3383 45.0487C84.2095 45.4738 84.0436 45.8872 83.8423 46.2842C83.6442 46.6732 83.5882 47.0266 83.6774 47.3236C83.7667 47.6206 84.1069 47.8656 84.7027 48.0379C85.2985 48.2101 86.3193 48.2859 87.7756 48.2859Z" fill="#1F57C3"/>
<path d="M101.47 4.31817V3.53857H109.869V4.31817H108.481L108.546 48.2219H109.869V49.0029H101.47V48.2248H103.119V4.31817H101.47Z" fill="#1F57C3"/>
<path d="M125.826 22.0306C125.294 21.5979 124.914 21.012 124.739 20.3556C124.569 19.7979 124.474 19.2208 124.456 18.639C124.445 18.1282 124.517 17.6189 124.669 17.1303C124.556 17.1303 124.301 17.353 123.903 17.7985C123.504 18.244 123.07 18.7731 122.601 19.3859C122.132 19.9977 121.67 20.5961 121.215 21.1812C120.761 21.7663 120.419 22.1974 120.192 22.4746C119.877 22.8162 119.527 23.1243 119.147 23.3938C118.914 23.5723 118.644 23.7004 118.357 23.7695C117.872 23.7639 117.39 23.6858 116.928 23.5378C116.431 23.383 115.957 23.1627 115.52 22.883C115.085 22.6078 114.696 22.2664 114.37 21.8717C114.042 21.4806 113.815 21.0183 113.707 20.5234C113.707 19.7423 113.729 19.0988 113.772 18.593C113.823 18.0425 113.915 17.4964 114.049 16.9595C114.356 15.7407 114.735 14.5404 115.183 13.3645C115.685 12.0147 116.262 10.6931 116.912 9.40565C117.547 8.13737 118.281 6.91908 119.107 5.76162C119.811 4.73935 120.684 3.8395 121.689 3.09912C121.988 3.10204 122.287 3.12287 122.584 3.16149C122.939 3.20747 123.288 3.28501 123.629 3.39314C123.979 3.50284 124.321 3.6358 124.653 3.7911C124.969 3.93632 125.252 4.14292 125.484 4.39844C125.229 4.67761 124.584 5.61263 123.549 7.20349C122.513 8.79435 121.354 11.0841 120.071 14.0728C119.929 14.3807 119.758 14.8262 119.56 15.4093C119.361 15.9923 119.159 16.6066 118.955 17.2521C118.753 17.8955 118.589 18.5237 118.463 19.1365C118.352 19.618 118.288 20.1087 118.271 20.6021C118.26 20.7763 118.297 20.9503 118.378 21.1055C118.433 21.1957 118.497 21.2798 118.571 21.3564C118.997 21.1891 119.537 20.7283 120.192 19.974C120.846 19.2196 121.753 18.0609 122.914 16.4977C123.198 16.1077 123.532 15.6622 123.916 15.1613C124.3 14.6604 124.691 14.1233 125.088 13.5501C125.485 12.9769 125.862 12.383 126.219 11.7682C126.562 11.1789 126.855 10.5625 127.093 9.92538C127.207 9.58979 127.359 9.1938 127.547 8.73743C127.75 8.2423 127.98 7.75848 128.237 7.28813C128.521 6.76206 128.835 6.25149 129.176 5.75865C129.54 5.23292 129.962 4.74835 130.434 4.3138C130.835 4.31684 131.236 4.35912 131.629 4.44002C132.038 4.52004 132.442 4.62467 132.838 4.75334C133.184 4.86358 133.519 5.00371 133.839 5.1721C134.081 5.29375 134.298 5.45724 134.481 5.6547C133.971 6.88324 133.401 8.09792 132.773 9.29874C132.145 10.4996 131.564 11.6791 131.03 12.8373C130.504 13.9606 130.05 15.1146 129.669 16.2928C129.31 17.3754 129.123 18.5058 129.115 19.6443C129.108 20.1575 129.159 20.67 129.266 21.1723C129.348 21.542 129.455 21.9057 129.587 22.2608C129.681 22.5104 129.787 22.7553 129.906 22.9943C129.995 23.1481 130.047 23.3198 130.057 23.4962C130.057 23.5244 130.029 23.566 129.973 23.6225C129.962 23.6347 129.949 23.6447 129.934 23.6519C129.919 23.659 129.903 23.6632 129.887 23.664C129.627 23.6546 129.369 23.6127 129.12 23.5393C128.765 23.4406 128.416 23.3216 128.075 23.1829C127.691 23.0344 127.307 22.8547 126.923 22.6587C126.545 22.4703 126.179 22.2605 125.826 22.0306Z" fill="#001E00"/>
<path d="M132.181 36.8161C131.782 36.7032 131.555 36.2845 131.499 35.5598C131.373 35.1363 131.294 34.7006 131.264 34.2605C131.22 33.7586 131.199 33.1854 131.199 32.5439C131.226 31.7338 131.328 30.9277 131.502 30.1353C131.703 29.1147 131.98 27.9629 132.333 26.6799C132.686 25.3969 133.12 24.008 133.634 22.5132C134.144 21.0193 134.714 19.5042 135.344 17.9678C136.112 16.0423 136.781 14.3742 137.349 12.9635C137.918 11.5528 138.394 10.3312 138.778 9.29869C139.162 8.26517 139.475 7.41331 139.716 6.74311C139.957 6.0729 140.149 5.50071 140.292 5.02652C140.439 4.61215 140.61 4.20656 140.805 3.81184C141.042 3.31749 141.305 2.83526 141.593 2.36699C141.895 1.87894 142.201 1.41812 142.511 0.984514C142.756 0.627123 143.041 0.297012 143.359 0C144.325 0.133043 145.271 0.386537 146.172 0.754349C147.052 1.11667 147.593 1.46563 147.791 1.80123C147.272 2.31302 146.816 2.88208 146.43 3.49703C145.917 4.26623 145.42 5.10423 144.938 6.01103C144.456 6.91783 144.015 7.84592 143.614 8.79529C143.263 9.61403 142.964 10.4537 142.719 11.3093C143.051 10.7674 143.421 10.2493 143.828 9.75902C144.282 9.20068 144.979 8.43297 145.918 7.45588C146.805 6.52849 147.801 5.70619 148.883 5.00573C149.806 4.43254 150.608 4.14595 151.292 4.14595C152.373 4.14595 153.261 4.43947 153.958 5.02652C154.295 5.30118 154.565 5.64746 154.746 6.03923C154.927 6.431 155.015 6.85802 155.003 7.28808C155 9.31928 154.654 11.3359 153.979 13.256C153.318 15.1906 152.322 16.9989 151.036 18.6018C150.528 19.2419 149.957 19.8313 149.331 20.3615C148.69 20.9096 148.005 21.4062 147.283 21.8464C146.621 22.2537 145.92 22.5959 145.19 22.8681C144.608 23.1 143.987 23.2277 143.359 23.2452C142.891 23.2561 142.428 23.1481 142.015 22.9319C141.673 22.7642 141.397 22.4922 141.227 22.1568C142.439 21.4292 143.531 20.5255 144.467 19.4765C145.575 18.2571 146.554 16.9307 147.389 15.5176C148.311 13.9737 149.096 12.3552 149.736 10.6797C150.397 8.96814 150.903 7.20262 151.248 5.40369C150.223 5.9272 149.245 6.53681 148.327 7.22571C147.362 7.97731 146.495 8.84204 145.745 9.80059C144.722 11.0301 143.911 12.0201 143.314 12.7705C142.716 13.5209 142.227 14.1643 141.847 14.7009C141.499 15.1739 141.185 15.67 140.908 16.1858C140.666 16.6481 140.402 17.2139 140.118 17.8831C139.721 18.7741 139.259 19.9536 138.733 21.4217C138.207 22.8898 137.666 24.5302 137.112 26.3428C136.557 28.1574 136.003 30.0913 135.448 32.1445C134.894 34.1976 134.359 36.2434 133.844 38.2817C133.53 38.2253 133.26 38.0021 133.033 37.612C132.806 37.3596 132.642 37.1779 132.543 37.067C132.445 36.9559 132.32 36.8698 132.181 36.8161Z" fill="#001E00"/>
<path d="M0 6.00202L15.9963 0.224121L31.9926 6.00202L27.8582 7.49587V11.9329C27.9623 11.9669 28.0543 12.0293 28.1238 12.1126C28.1933 12.196 28.2373 12.297 28.2507 12.4039C28.2642 12.5108 28.2465 12.6192 28.1998 12.7167C28.1531 12.8141 28.0792 12.8966 27.9867 12.9545L28.2892 13.7831H27.0537L27.3561 12.9545C27.2637 12.8966 27.1898 12.8141 27.1431 12.7167C27.0963 12.6192 27.0787 12.5108 27.0921 12.4039C27.1056 12.297 27.1496 12.196 27.2191 12.1126C27.2885 12.0293 27.3806 11.9669 27.4847 11.9329V5.69612L27.2987 7.69188L25.1256 8.47741V15.3883H6.86248V9.14118L15.9963 11.7814L0 6.00202Z" fill="#001E00"/>
<path d="M10.5825 22.2711H9.52399V21.4544V20.9346V19.6724H15.9963V17.647H6.9895V30.9906L15.9963 49V21.4544H10.5825V22.2711Z" fill="#FFD546"/>
<path d="M15.9963 17.647V19.6724H24.495V20.9346V21.4544V22.2711H23.4365V21.4544H17.9607V45.0708L25.0031 30.9906V17.647H15.9963Z" fill="#001E00"/>
</g>
<defs>
<clipPath id="clip0_152_1081">
<rect width="155" height="49" fill="white"/>
</clipPath>
</defs>
</svg>
